<svg xmlns="http://www.w3.org/2000/svg" width="24" height="24" viewBox="0 0 24 24">
  <path id="github" d="M12,2A10,10,0,1,1,2,12,10.011,10.011,0,0,1,12,2Zm0-2A12,12,0,1,0,24,12,12,12,0,0,0,12,0Zm0,6a6,6,0,0,0-1.9,11.693c.3.056.4-.13.4-.289V16.287c-1.669.363-2.017-.707-2.017-.707a1.588,1.588,0,0,0-.666-.878c-.544-.373.041-.365.041-.365a1.26,1.26,0,0,1,.92.619,1.278,1.278,0,0,0,1.746.5,1.275,1.275,0,0,1,.381-.8c-1.333-.152-2.733-.667-2.733-2.965a2.32,2.32,0,0,1,.618-1.61,2.163,2.163,0,0,1,.058-1.59s.5-.161,1.65.615a5.689,5.689,0,0,1,3.005,0c1.146-.776,1.648-.615,1.648-.615a2.161,2.161,0,0,1,.06,1.588,2.314,2.314,0,0,1,.617,1.61c0,2.305-1.4,2.812-2.74,2.96a1.431,1.431,0,0,1,.412,1.111V17.4c0,.16.1.347.4.288A6,6,0,0,0,12,6Z" fill="#f68ddc"/>
</svg>
